<svg xmlns="http://www.w3.org/2000/svg" viewBox="0 0 1440 320">
  <path fill="#111827" fill-opacity="1" d="M0,160L48,176C96,192,192,224,288,213.3C384,203,480,149,576,138.7C672,128,768,160,864,186.7C960,213,1056,235,1152,218.7C1248,203,1344,149,1392,122.7L1440,96L1440,0L1392,0C1344,0,1248,0,1152,0C1056,0,960,0,864,0C768,0,672,0,576,0C480,0,384,0,288,0C192,0,96,0,48,0L0,0Z"></path>
  <path fill="#3730a3" fill-opacity="0.5" d="M0,192L48,181.3C96,171,192,149,288,160C384,171,480,213,576,240C672,267,768,277,864,256C960,235,1056,181,1152,165.3C1248,149,1344,171,1392,181.3L1440,192L1440,0L1392,0C1344,0,1248,0,1152,0C1056,0,960,0,864,0C768,0,672,0,576,0C480,0,384,0,288,0C192,0,96,0,48,0L0,0Z"></path>
</svg>